<svg xmlns="http://www.w3.org/2000/svg" xmlns:xlink="http://www.w3.org/1999/xlink" width="500" zoomAndPan="magnify" viewBox="0 0 375 374.999991" height="500" preserveAspectRatio="xMidYMid meet" version="1.2"><defs><clipPath id="268b3e58de"><path d="M 43.789062 43.789062 L 331.210938 43.789062 L 331.210938 331.210938 L 43.789062 331.210938 Z M 43.789062 43.789062 "/></clipPath><clipPath id="2e88f9ef17"><path d="M 187.5 43.789062 C 108.132812 43.789062 43.789062 108.132812 43.789062 187.5 C 43.789062 266.867188 108.132812 331.210938 187.5 331.210938 C 266.867188 331.210938 331.210938 266.867188 331.210938 187.5 C 331.210938 108.132812 266.867188 43.789062 187.5 43.789062 Z M 187.5 43.789062 "/></clipPath><clipPath id="38652e5eb5"><path d="M 0.789062 0.789062 L 288.210938 0.789062 L 288.210938 288.210938 L 0.789062 288.210938 Z M 0.789062 0.789062 "/></clipPath><clipPath id="edaaf9f4a2"><path d="M 144.5 0.789062 C 65.132812 0.789062 0.789062 65.132812 0.789062 144.5 C 0.789062 223.867188 65.132812 288.210938 144.5 288.210938 C 223.867188 288.210938 288.210938 223.867188 288.210938 144.5 C 288.210938 65.132812 223.867188 0.789062 144.5 0.789062 Z M 144.5 0.789062 "/></clipPath><clipPath id="7535c88077"><rect x="0" width="289" y="0" height="289"/></clipPath><clipPath id="ece1de9371"><path d="M 43.789062 43.789062 L 331.039062 43.789062 L 331.039062 331.039062 L 43.789062 331.039062 Z M 43.789062 43.789062 "/></clipPath><clipPath id="8276d69850"><path d="M 61.40625 61.40625 L 313.59375 61.40625 L 313.59375 313.59375 L 61.40625 313.59375 Z M 61.40625 61.40625 "/></clipPath><clipPath id="a0f71014f4"><path d="M 187.5 61.40625 C 117.859375 61.40625 61.40625 117.859375 61.40625 187.5 C 61.40625 257.140625 117.859375 313.59375 187.5 313.59375 C 257.140625 313.59375 313.59375 257.140625 313.59375 187.5 C 313.59375 117.859375 257.140625 61.40625 187.5 61.40625 Z M 187.5 61.40625 "/></clipPath><clipPath id="7b43fd4a14"><path d="M 0.40625 0.40625 L 252.59375 0.40625 L 252.59375 252.59375 L 0.40625 252.59375 Z M 0.40625 0.40625 "/></clipPath><clipPath id="d2289e18e9"><path d="M 126.5 0.40625 C 56.859375 0.40625 0.40625 56.859375 0.40625 126.5 C 0.40625 196.140625 56.859375 252.59375 126.5 252.59375 C 196.140625 252.59375 252.59375 196.140625 252.59375 126.5 C 252.59375 56.859375 196.140625 0.40625 126.5 0.40625 Z M 126.5 0.40625 "/></clipPath><clipPath id="1739631e32"><rect x="0" width="253" y="0" height="253"/></clipPath><clipPath id="746bbf9b5d"><rect x="0" width="150" y="0" height="12"/></clipPath><clipPath id="dbac1109a9"><rect x="0" width="116" y="0" height="158"/></clipPath><clipPath id="8212128a7b"><rect x="0" width="89" y="0" height="187"/></clipPath></defs><g id="764a25eeec"><rect x="0" width="375" y="0" height="374.999991" style="fill:#ffffff;fill-opacity:1;stroke:none;"/><rect x="0" width="375" y="0" height="374.999991" style="fill:#ffffff;fill-opacity:1;stroke:none;"/><g clip-rule="nonzero" clip-path="url(#268b3e58de)"><g clip-rule="nonzero" clip-path="url(#2e88f9ef17)"><g transform="matrix(1,0,0,1,43,43)"><g clip-path="url(#7535c88077)"><g clip-rule="nonzero" clip-path="url(#38652e5eb5)"><g clip-rule="nonzero" clip-path="url(#edaaf9f4a2)"><path style=" stroke:none;fill-rule:nonzero;fill:#ffffff;fill-opacity:1;" d="M 0.789062 0.789062 L 288.210938 0.789062 L 288.210938 288.210938 L 0.789062 288.210938 Z M 0.789062 0.789062 "/></g></g></g></g></g></g><g clip-rule="nonzero" clip-path="url(#ece1de9371)"><path style=" stroke:none;fill-rule:nonzero;fill:#000000;fill-opacity:1;" d="M 187.414062 43.789062 C 108.171875 43.789062 43.789062 108.171875 43.789062 187.414062 C 43.789062 266.65625 108.171875 331.039062 187.414062 331.039062 C 266.65625 331.039062 331.039062 266.65625 331.039062 187.414062 C 331.039062 108.171875 266.65625 43.789062 187.414062 43.789062 Z M 187.414062 50.035156 C 263.367188 50.035156 324.796875 111.460938 324.796875 187.414062 C 324.796875 263.367188 263.367188 324.796875 187.414062 324.796875 C 111.460938 324.796875 50.035156 263.367188 50.035156 187.414062 C 50.035156 111.460938 111.460938 50.035156 187.414062 50.035156 Z M 187.414062 50.035156 "/></g><g clip-rule="nonzero" clip-path="url(#8276d69850)"><g clip-rule="nonzero" clip-path="url(#a0f71014f4)"><g transform="matrix(1,0,0,1,61,61)"><g clip-path="url(#1739631e32)"><g clip-rule="nonzero" clip-path="url(#7b43fd4a14)"><g clip-rule="nonzero" clip-path="url(#d2289e18e9)"><path style=" stroke:none;fill-rule:nonzero;fill:#000000;fill-opacity:1;" d="M 0.40625 0.40625 L 252.59375 0.40625 L 252.59375 252.59375 L 0.40625 252.59375 Z M 0.40625 0.40625 "/></g></g></g></g></g></g><g transform="matrix(1,0,0,1,116,257)"><g clip-path="url(#746bbf9b5d)"><g style="fill:#ffffff;fill-opacity:1;"><g transform="translate(1.731373, 8.721776)"><path style="stroke:none" d="M 5.640625 -1 L 5.640625 0 L 0.859375 0 L 0.859375 -6.375 L 5.515625 -6.375 L 5.515625 -5.390625 L 2.046875 -5.390625 L 2.046875 -3.71875 L 5.125 -3.71875 L 5.125 -2.75 L 2.046875 -2.75 L 2.046875 -1 Z M 5.640625 -1 "/></g></g><g style="fill:#ffffff;fill-opacity:1;"><g transform="translate(15.114404, 8.721776)"><path style="stroke:none" d="M 0.859375 -6.375 L 2.046875 -6.375 L 2.046875 -1 L 5.375 -1 L 5.375 0 L 0.859375 0 Z M 0.859375 -6.375 "/></g></g><g style="fill:#ffffff;fill-opacity:1;"><g transform="translate(27.851041, 8.721776)"><path style="stroke:none" d="M 5.640625 -1 L 5.640625 0 L 0.859375 0 L 0.859375 -6.375 L 5.515625 -6.375 L 5.515625 -5.390625 L 2.046875 -5.390625 L 2.046875 -3.71875 L 5.125 -3.71875 L 5.125 -2.75 L 2.046875 -2.75 L 2.046875 -1 Z M 5.640625 -1 "/></g></g><g style="fill:#ffffff;fill-opacity:1;"><g transform="translate(41.234071, 8.721776)"><path style="stroke:none" d="M 3.8125 0.09375 C 3.164062 0.09375 2.582031 -0.046875 2.0625 -0.328125 C 1.539062 -0.609375 1.132812 -1 0.84375 -1.5 C 0.550781 -2 0.40625 -2.5625 0.40625 -3.1875 C 0.40625 -3.8125 0.550781 -4.375 0.84375 -4.875 C 1.144531 -5.375 1.550781 -5.765625 2.0625 -6.046875 C 2.582031 -6.328125 3.164062 -6.46875 3.8125 -6.46875 C 4.332031 -6.46875 4.804688 -6.375 5.234375 -6.1875 C 5.671875 -6.007812 6.039062 -5.75 6.34375 -5.40625 L 5.578125 -4.6875 C 5.109375 -5.175781 4.539062 -5.421875 3.875 -5.421875 C 3.4375 -5.421875 3.039062 -5.328125 2.6875 -5.140625 C 2.34375 -4.953125 2.070312 -4.6875 1.875 -4.34375 C 1.6875 -4 1.59375 -3.613281 1.59375 -3.1875 C 1.59375 -2.757812 1.6875 -2.375 1.875 -2.03125 C 2.070312 -1.6875 2.34375 -1.421875 2.6875 -1.234375 C 3.039062 -1.046875 3.4375 -0.953125 3.875 -0.953125 C 4.539062 -0.953125 5.109375 -1.203125 5.578125 -1.703125 L 6.34375 -0.96875 C 6.039062 -0.625 5.671875 -0.359375 5.234375 -0.171875 C 4.804688 0.00390625 4.332031 0.09375 3.8125 0.09375 Z M 3.8125 0.09375 "/></g></g><g style="fill:#ffffff;fill-opacity:1;"><g transform="translate(55.136039, 8.721776)"><path style="stroke:none" d="M 2.15625 -5.375 L 0.03125 -5.375 L 0.03125 -6.375 L 5.453125 -6.375 L 5.453125 -5.375 L 3.328125 -5.375 L 3.328125 0 L 2.15625 0 Z M 2.15625 -5.375 "/></g></g><g style="fill:#ffffff;fill-opacity:1;"><g transform="translate(67.899985, 8.721776)"><path style="stroke:none" d="M 5.03125 0 L 3.71875 -1.875 C 3.664062 -1.863281 3.585938 -1.859375 3.484375 -1.859375 L 2.046875 -1.859375 L 2.046875 0 L 0.859375 0 L 0.859375 -6.375 L 3.484375 -6.375 C 4.035156 -6.375 4.515625 -6.28125 4.921875 -6.09375 C 5.328125 -5.914062 5.640625 -5.65625 5.859375 -5.3125 C 6.078125 -4.976562 6.1875 -4.578125 6.1875 -4.109375 C 6.1875 -3.628906 6.070312 -3.210938 5.84375 -2.859375 C 5.613281 -2.515625 5.28125 -2.257812 4.84375 -2.09375 L 6.296875 0 Z M 5 -4.109375 C 5 -4.515625 4.863281 -4.828125 4.59375 -5.046875 C 4.332031 -5.265625 3.941406 -5.375 3.421875 -5.375 L 2.046875 -5.375 L 2.046875 -2.828125 L 3.421875 -2.828125 C 3.941406 -2.828125 4.332031 -2.9375 4.59375 -3.15625 C 4.863281 -3.382812 5 -3.703125 5 -4.109375 Z M 5 -4.109375 "/></g></g><g style="fill:#ffffff;fill-opacity:1;"><g transform="translate(81.838372, 8.721776)"><path style="stroke:none" d="M 3.828125 0.09375 C 3.179688 0.09375 2.597656 -0.046875 2.078125 -0.328125 C 1.554688 -0.609375 1.144531 -1 0.84375 -1.5 C 0.550781 -2.007812 0.40625 -2.570312 0.40625 -3.1875 C 0.40625 -3.8125 0.550781 -4.375 0.84375 -4.875 C 1.144531 -5.375 1.554688 -5.765625 2.078125 -6.046875 C 2.597656 -6.328125 3.179688 -6.46875 3.828125 -6.46875 C 4.484375 -6.46875 5.070312 -6.328125 5.59375 -6.046875 C 6.113281 -5.765625 6.519531 -5.375 6.8125 -4.875 C 7.113281 -4.375 7.265625 -3.8125 7.265625 -3.1875 C 7.265625 -2.5625 7.113281 -2 6.8125 -1.5 C 6.519531 -1 6.113281 -0.609375 5.59375 -0.328125 C 5.070312 -0.046875 4.484375 0.09375 3.828125 0.09375 Z M 3.828125 -0.953125 C 4.253906 -0.953125 4.640625 -1.046875 4.984375 -1.234375 C 5.328125 -1.421875 5.59375 -1.6875 5.78125 -2.03125 C 5.976562 -2.375 6.078125 -2.757812 6.078125 -3.1875 C 6.078125 -3.613281 5.976562 -4 5.78125 -4.34375 C 5.59375 -4.6875 5.328125 -4.953125 4.984375 -5.140625 C 4.640625 -5.328125 4.253906 -5.421875 3.828125 -5.421875 C 3.410156 -5.421875 3.03125 -5.328125 2.6875 -5.140625 C 2.34375 -4.953125 2.070312 -4.6875 1.875 -4.34375 C 1.6875 -4 1.59375 -3.613281 1.59375 -3.1875 C 1.59375 -2.757812 1.6875 -2.375 1.875 -2.03125 C 2.070312 -1.6875 2.34375 -1.421875 2.6875 -1.234375 C 3.03125 -1.046875 3.410156 -0.953125 3.828125 -0.953125 Z M 3.828125 -0.953125 "/></g></g><g style="fill:#ffffff;fill-opacity:1;"><g transform="translate(96.787313, 8.721776)"><path style="stroke:none" d="M 6.515625 -6.375 L 6.515625 0 L 5.546875 0 L 2.03125 -4.3125 L 2.03125 0 L 0.859375 0 L 0.859375 -6.375 L 1.828125 -6.375 L 5.34375 -2.0625 L 5.34375 -6.375 Z M 6.515625 -6.375 "/></g></g><g style="fill:#ffffff;fill-opacity:1;"><g transform="translate(111.44492, 8.721776)"><path style="stroke:none" d="M 0.859375 -6.375 L 2.046875 -6.375 L 2.046875 0 L 0.859375 0 Z M 0.859375 -6.375 "/></g></g><g style="fill:#ffffff;fill-opacity:1;"><g transform="translate(121.632403, 8.721776)"><path style="stroke:none" d="M 3.8125 0.09375 C 3.164062 0.09375 2.582031 -0.046875 2.0625 -0.328125 C 1.539062 -0.609375 1.132812 -1 0.84375 -1.5 C 0.550781 -2 0.40625 -2.5625 0.40625 -3.1875 C 0.40625 -3.8125 0.550781 -4.375 0.84375 -4.875 C 1.144531 -5.375 1.550781 -5.765625 2.0625 -6.046875 C 2.582031 -6.328125 3.164062 -6.46875 3.8125 -6.46875 C 4.332031 -6.46875 4.804688 -6.375 5.234375 -6.1875 C 5.671875 -6.007812 6.039062 -5.75 6.34375 -5.40625 L 5.578125 -4.6875 C 5.109375 -5.175781 4.539062 -5.421875 3.875 -5.421875 C 3.4375 -5.421875 3.039062 -5.328125 2.6875 -5.140625 C 2.34375 -4.953125 2.070312 -4.6875 1.875 -4.34375 C 1.6875 -4 1.59375 -3.613281 1.59375 -3.1875 C 1.59375 -2.757812 1.6875 -2.375 1.875 -2.03125 C 2.070312 -1.6875 2.34375 -1.421875 2.6875 -1.234375 C 3.039062 -1.046875 3.4375 -0.953125 3.875 -0.953125 C 4.539062 -0.953125 5.109375 -1.203125 5.578125 -1.703125 L 6.34375 -0.96875 C 6.039062 -0.625 5.671875 -0.359375 5.234375 -0.171875 C 4.804688 0.00390625 4.332031 0.09375 3.8125 0.09375 Z M 3.8125 0.09375 "/></g></g><g style="fill:#ffffff;fill-opacity:1;"><g transform="translate(135.534371, 8.721776)"><path style="stroke:none" d="M 2.828125 0.09375 C 2.335938 0.09375 1.863281 0.0234375 1.40625 -0.109375 C 0.945312 -0.253906 0.582031 -0.441406 0.3125 -0.671875 L 0.734375 -1.59375 C 0.992188 -1.382812 1.3125 -1.210938 1.6875 -1.078125 C 2.070312 -0.953125 2.453125 -0.890625 2.828125 -0.890625 C 3.304688 -0.890625 3.660156 -0.960938 3.890625 -1.109375 C 4.128906 -1.265625 4.25 -1.46875 4.25 -1.71875 C 4.25 -1.90625 4.179688 -2.054688 4.046875 -2.171875 C 3.921875 -2.285156 3.753906 -2.375 3.546875 -2.4375 C 3.347656 -2.507812 3.078125 -2.585938 2.734375 -2.671875 C 2.242188 -2.785156 1.847656 -2.898438 1.546875 -3.015625 C 1.253906 -3.140625 1 -3.320312 0.78125 -3.5625 C 0.5625 -3.8125 0.453125 -4.144531 0.453125 -4.5625 C 0.453125 -4.914062 0.546875 -5.234375 0.734375 -5.515625 C 0.929688 -5.804688 1.222656 -6.035156 1.609375 -6.203125 C 1.992188 -6.378906 2.46875 -6.46875 3.03125 -6.46875 C 3.414062 -6.46875 3.796875 -6.414062 4.171875 -6.3125 C 4.546875 -6.21875 4.867188 -6.082031 5.140625 -5.90625 L 4.765625 -4.984375 C 4.492188 -5.148438 4.203125 -5.273438 3.890625 -5.359375 C 3.585938 -5.441406 3.296875 -5.484375 3.015625 -5.484375 C 2.546875 -5.484375 2.195312 -5.40625 1.96875 -5.25 C 1.738281 -5.09375 1.625 -4.882812 1.625 -4.625 C 1.625 -4.4375 1.6875 -4.285156 1.8125 -4.171875 C 1.945312 -4.054688 2.113281 -3.960938 2.3125 -3.890625 C 2.519531 -3.828125 2.796875 -3.753906 3.140625 -3.671875 C 3.617188 -3.554688 4.007812 -3.441406 4.3125 -3.328125 C 4.613281 -3.210938 4.867188 -3.03125 5.078125 -2.78125 C 5.296875 -2.539062 5.40625 -2.210938 5.40625 -1.796875 C 5.40625 -1.453125 5.3125 -1.132812 5.125 -0.84375 C 4.9375 -0.5625 4.644531 -0.332031 4.25 -0.15625 C 3.863281 0.0078125 3.390625 0.09375 2.828125 0.09375 Z M 2.828125 0.09375 "/></g></g></g></g><g transform="matrix(1,0,0,1,166,97)"><g clip-path="url(#dbac1109a9)"><g style="fill:#000000;fill-opacity:0.4;"><g transform="translate(3.725168, 129.379646)"><path style="stroke:none" d="M 60.453125 -21.421875 L 90.609375 -90.328125 L 104.515625 -90.328125 L 109.578125 0 L 95.65625 0 L 91.96875 -77.640625 L 91.421875 -77.640625 L 57.03125 0 L 55.125 0 L 21.421875 -74.5 L 20.875 -74.5 L 17.1875 0 L 11.1875 0 L 16.234375 -90.328125 L 28.921875 -90.328125 Z M 60.453125 -21.421875 "/></g></g><g style="fill:#ffffff;fill-opacity:1;"><g transform="translate(1.192365, 126.846844)"><path style="stroke:none" d="M 60.453125 -21.421875 L 90.609375 -90.328125 L 104.515625 -90.328125 L 109.578125 0 L 95.65625 0 L 91.96875 -77.640625 L 91.421875 -77.640625 L 57.03125 0 L 55.125 0 L 21.421875 -74.5 L 20.875 -74.5 L 17.1875 0 L 11.1875 0 L 16.234375 -90.328125 L 28.921875 -90.328125 Z M 60.453125 -21.421875 "/></g></g></g></g><g transform="matrix(1,0,0,1,96,47)"><g clip-path="url(#8212128a7b)"><g style="fill:#000000;fill-opacity:0.4;"><g transform="translate(5.565793, 152.159373)"><path style="stroke:none" d="M 26.203125 -88.46875 C 26.203125 -83.726562 28.0625 -79.332031 31.78125 -75.28125 C 35.5 -71.238281 40.023438 -67.679688 45.359375 -64.609375 C 50.703125 -61.535156 56.015625 -58.410156 61.296875 -55.234375 C 66.578125 -52.054688 71.078125 -48.144531 74.796875 -43.5 C 78.515625 -38.863281 80.375 -33.742188 80.375 -28.140625 C 80.375 -19.296875 77.113281 -12.070312 70.59375 -6.46875 C 64.070312 -0.863281 55.257812 1.9375 44.15625 1.9375 C 33.050781 1.9375 22.050781 -0.160156 11.15625 -4.359375 L 11.15625 -11.96875 C 22.15625 -6.46875 31.507812 -3.71875 39.21875 -3.71875 C 46.925781 -3.71875 52.9375 -5.601562 57.25 -9.375 C 61.5625 -13.15625 63.71875 -18.382812 63.71875 -25.0625 C 63.71875 -29.59375 61.9375 -33.71875 58.375 -37.4375 C 54.820312 -41.15625 50.507812 -44.390625 45.4375 -47.140625 C 40.375 -49.890625 35.304688 -52.71875 30.234375 -55.625 C 25.171875 -58.539062 20.859375 -62.234375 17.296875 -66.703125 C 13.742188 -71.179688 11.96875 -76.601562 11.96875 -82.96875 C 11.96875 -89.332031 14.796875 -95.265625 20.453125 -100.765625 C 26.117188 -106.265625 34.554688 -109.015625 45.765625 -109.015625 C 53.097656 -109.015625 62.375 -107.34375 73.59375 -104 L 71.96875 -93 C 57.414062 -99.25 44.960938 -102.375 34.609375 -102.375 C 29.003906 -99.675781 26.203125 -95.039062 26.203125 -88.46875 Z M 26.203125 -88.46875 "/></g></g><g style="fill:#efebe7;fill-opacity:1;"><g transform="translate(2.563426, 149.157008)"><path style="stroke:none" d="M 26.203125 -88.46875 C 26.203125 -83.726562 28.0625 -79.332031 31.78125 -75.28125 C 35.5 -71.238281 40.023438 -67.679688 45.359375 -64.609375 C 50.703125 -61.535156 56.015625 -58.410156 61.296875 -55.234375 C 66.578125 -52.054688 71.078125 -48.144531 74.796875 -43.5 C 78.515625 -38.863281 80.375 -33.742188 80.375 -28.140625 C 80.375 -19.296875 77.113281 -12.070312 70.59375 -6.46875 C 64.070312 -0.863281 55.257812 1.9375 44.15625 1.9375 C 33.050781 1.9375 22.050781 -0.160156 11.15625 -4.359375 L 11.15625 -11.96875 C 22.15625 -6.46875 31.507812 -3.71875 39.21875 -3.71875 C 46.925781 -3.71875 52.9375 -5.601562 57.25 -9.375 C 61.5625 -13.15625 63.71875 -18.382812 63.71875 -25.0625 C 63.71875 -29.59375 61.9375 -33.71875 58.375 -37.4375 C 54.820312 -41.15625 50.507812 -44.390625 45.4375 -47.140625 C 40.375 -49.890625 35.304688 -52.71875 30.234375 -55.625 C 25.171875 -58.539062 20.859375 -62.234375 17.296875 -66.703125 C 13.742188 -71.179688 11.96875 -76.601562 11.96875 -82.96875 C 11.96875 -89.332031 14.796875 -95.265625 20.453125 -100.765625 C 26.117188 -106.265625 34.554688 -109.015625 45.765625 -109.015625 C 53.097656 -109.015625 62.375 -107.34375 73.59375 -104 L 71.96875 -93 C 57.414062 -99.25 44.960938 -102.375 34.609375 -102.375 C 29.003906 -99.675781 26.203125 -95.039062 26.203125 -88.46875 Z M 26.203125 -88.46875 "/></g></g></g></g></g></svg>